<mxfile host="Electron" modified="2023-07-10T07:00:14.132Z" agent="Mozilla/5.0 (Windows NT 10.0; Win64; x64) AppleWebKit/537.36 (KHTML, like Gecko) draw.io/21.2.1 Chrome/112.0.5615.87 Electron/24.1.2 Safari/537.36" etag="ngnM1Znkrz2M_I3-k5GG" version="21.2.1" type="device">
  <diagram name="Page-1" id="929967ad-93f9-6ef4-fab6-5d389245f69c">
    <mxGraphModel dx="1435" dy="1408" grid="1" gridSize="10" guides="1" tooltips="1" connect="1" arrows="1" fold="1" page="1" pageScale="1.5" pageWidth="1169" pageHeight="826" background="none" math="0" shadow="0">
      <root>
        <mxCell id="0" style=";html=1;" />
        <mxCell id="1" style=";html=1;" parent="0" />
        <mxCell id="NE3gvkHHn-rzWUVPZirw-7" style="edgeStyle=orthogonalEdgeStyle;rounded=0;orthogonalLoop=1;jettySize=auto;html=1;entryX=0;entryY=0;entryDx=160;entryDy=55;entryPerimeter=0;exitX=0;exitY=0;exitDx=0;exitDy=55;exitPerimeter=0;startArrow=classic;startFill=1;endArrow=none;endFill=0;" edge="1" parent="1" source="NE3gvkHHn-rzWUVPZirw-1" target="NE3gvkHHn-rzWUVPZirw-3">
          <mxGeometry relative="1" as="geometry" />
        </mxCell>
        <mxCell id="NE3gvkHHn-rzWUVPZirw-8" value="&amp;lt;&amp;lt;use&amp;gt;&amp;gt;" style="edgeLabel;html=1;align=center;verticalAlign=middle;resizable=0;points=[];" vertex="1" connectable="0" parent="NE3gvkHHn-rzWUVPZirw-7">
          <mxGeometry x="-0.1105" y="1" relative="1" as="geometry">
            <mxPoint as="offset" />
          </mxGeometry>
        </mxCell>
        <mxCell id="NE3gvkHHn-rzWUVPZirw-1" value="Anwesenheitsplaner GUI" style="shape=folder;tabWidth=80;tabHeight=20;tabPosition=left;strokeWidth=2;html=1;whiteSpace=wrap;align=center;" vertex="1" parent="1">
          <mxGeometry x="920" y="270" width="160" height="90" as="geometry" />
        </mxCell>
        <mxCell id="NE3gvkHHn-rzWUVPZirw-5" style="rounded=0;orthogonalLoop=1;jettySize=auto;html=1;entryX=0;entryY=0;entryDx=0;entryDy=55;entryPerimeter=0;startArrow=none;startFill=0;endArrow=classic;endFill=1;" edge="1" parent="1" target="NE3gvkHHn-rzWUVPZirw-3">
          <mxGeometry relative="1" as="geometry">
            <mxPoint x="440" y="325" as="sourcePoint" />
          </mxGeometry>
        </mxCell>
        <mxCell id="NE3gvkHHn-rzWUVPZirw-6" value="&amp;lt;&amp;lt;access&amp;gt;&amp;gt;" style="edgeLabel;html=1;align=center;verticalAlign=middle;resizable=0;points=[];" vertex="1" connectable="0" parent="NE3gvkHHn-rzWUVPZirw-5">
          <mxGeometry x="-0.1804" y="-3" relative="1" as="geometry">
            <mxPoint as="offset" />
          </mxGeometry>
        </mxCell>
        <mxCell id="NE3gvkHHn-rzWUVPZirw-2" value="Anwesenheitsdaten" style="shape=folder;tabWidth=80;tabHeight=20;tabPosition=left;strokeWidth=2;html=1;whiteSpace=wrap;align=center;" vertex="1" parent="1">
          <mxGeometry x="280" y="270" width="160" height="90" as="geometry" />
        </mxCell>
        <mxCell id="NE3gvkHHn-rzWUVPZirw-3" value="Datenverarbeitung / Logik" style="shape=folder;tabWidth=80;tabHeight=20;tabPosition=left;strokeWidth=2;html=1;whiteSpace=wrap;align=center;" vertex="1" parent="1">
          <mxGeometry x="600" y="270" width="160" height="90" as="geometry" />
        </mxCell>
        <mxCell id="NE3gvkHHn-rzWUVPZirw-9" value="" style="edgeStyle=orthogonalEdgeStyle;rounded=0;orthogonalLoop=1;jettySize=auto;html=1;entryX=0;entryY=0;entryDx=120;entryDy=20;entryPerimeter=0;" edge="1" parent="1" source="NE3gvkHHn-rzWUVPZirw-4" target="NE3gvkHHn-rzWUVPZirw-3">
          <mxGeometry relative="1" as="geometry" />
        </mxCell>
        <mxCell id="NE3gvkHHn-rzWUVPZirw-10" value="&amp;lt;&amp;lt;use&amp;gt;&amp;gt;" style="edgeLabel;html=1;align=center;verticalAlign=middle;resizable=0;points=[];" vertex="1" connectable="0" parent="NE3gvkHHn-rzWUVPZirw-9">
          <mxGeometry x="-0.3578" relative="1" as="geometry">
            <mxPoint x="24" as="offset" />
          </mxGeometry>
        </mxCell>
        <mxCell id="NE3gvkHHn-rzWUVPZirw-4" value="Benutzerauthentifizierung" style="shape=folder;tabWidth=80;tabHeight=20;tabPosition=left;strokeWidth=2;html=1;whiteSpace=wrap;align=center;" vertex="1" parent="1">
          <mxGeometry x="580" y="70" width="160" height="90" as="geometry" />
        </mxCell>
      </root>
    </mxGraphModel>
  </diagram>
</mxfile>
